<mxfile host="drawio-plugin" modified="2024-10-20T13:55:28.909Z" agent="5.0 (Macintosh; Intel Mac OS X 10_15_7) AppleWebKit/537.36 (KHTML, like Gecko) Chrome/122.0.0.0 Safari/537.36" etag="mJzY9CT9WRJ5SPrkeaZC" version="20.5.3" type="embed"><diagram id="B47GJggmBI3LOw2DD3_0" name="Page-1"><mxGraphModel dx="1494" dy="693" grid="1" gridSize="10" guides="1" tooltips="1" connect="1" arrows="1" fold="1" page="1" pageScale="1" pageWidth="850" pageHeight="1100" math="0" shadow="0"><root><mxCell id="0"/><mxCell id="1" parent="0"/><mxCell id="9" style="edgeStyle=orthogonalEdgeStyle;rounded=0;orthogonalLoop=1;jettySize=auto;html=1;entryX=0;entryY=0.5;entryDx=0;entryDy=0;" parent="1" source="2" target="5" edge="1"><mxGeometry relative="1" as="geometry"/></mxCell><mxCell id="2" value="golang" style="rounded=0;whiteSpace=wrap;html=1;" parent="1" vertex="1"><mxGeometry x="240" y="352.5" width="110" height="50" as="geometry"/></mxCell><mxCell id="10" style="edgeStyle=orthogonalEdgeStyle;rounded=0;orthogonalLoop=1;jettySize=auto;html=1;entryX=0;entryY=0.5;entryDx=0;entryDy=0;" parent="1" source="3" target="5" edge="1"><mxGeometry relative="1" as="geometry"/></mxCell><mxCell id="3" value="python" style="rounded=0;whiteSpace=wrap;html=1;" parent="1" vertex="1"><mxGeometry x="240" y="430" width="110" height="50" as="geometry"/></mxCell><mxCell id="11" style="edgeStyle=orthogonalEdgeStyle;rounded=0;orthogonalLoop=1;jettySize=auto;html=1;entryX=0;entryY=0.5;entryDx=0;entryDy=0;" parent="1" source="4" target="5" edge="1"><mxGeometry relative="1" as="geometry"/></mxCell><mxCell id="12" value="OTLP" style="edgeLabel;html=1;align=center;verticalAlign=middle;resizable=0;points=[];" parent="11" vertex="1" connectable="0"><mxGeometry x="0.4025" relative="1" as="geometry"><mxPoint as="offset"/></mxGeometry></mxCell><mxCell id="4" value="java" style="rounded=0;whiteSpace=wrap;html=1;" parent="1" vertex="1"><mxGeometry x="240" y="512.5" width="110" height="50" as="geometry"/></mxCell><mxCell id="17" style="edgeStyle=orthogonalEdgeStyle;rounded=0;orthogonalLoop=1;jettySize=auto;html=1;entryX=0;entryY=0.5;entryDx=0;entryDy=0;" parent="1" source="5" target="65" edge="1"><mxGeometry relative="1" as="geometry"><mxPoint x="895" y="365" as="targetPoint"/></mxGeometry></mxCell><mxCell id="80" value="tarce" style="edgeLabel;html=1;align=center;verticalAlign=middle;resizable=0;points=[];" parent="17" vertex="1" connectable="0"><mxGeometry x="0.7189" y="-3" relative="1" as="geometry"><mxPoint as="offset"/></mxGeometry></mxCell><mxCell id="18" style="edgeStyle=orthogonalEdgeStyle;rounded=0;orthogonalLoop=1;jettySize=auto;html=1;entryX=0;entryY=0.5;entryDx=0;entryDy=0;" parent="1" source="5" target="70" edge="1"><mxGeometry relative="1" as="geometry"><mxPoint x="895" y="443.75" as="targetPoint"/></mxGeometry></mxCell><mxCell id="81" value="metric" style="edgeLabel;html=1;align=center;verticalAlign=middle;resizable=0;points=[];" parent="18" vertex="1" connectable="0"><mxGeometry x="0.4857" y="-2" relative="1" as="geometry"><mxPoint as="offset"/></mxGeometry></mxCell><mxCell id="21" style="edgeStyle=orthogonalEdgeStyle;rounded=0;orthogonalLoop=1;jettySize=auto;html=1;entryX=0;entryY=0.5;entryDx=0;entryDy=0;" parent="1" source="5" target="75" edge="1"><mxGeometry relative="1" as="geometry"><mxPoint x="895" y="522.5" as="targetPoint"/></mxGeometry></mxCell><mxCell id="79" value="&amp;nbsp;OLTP&amp;nbsp;" style="edgeLabel;html=1;align=center;verticalAlign=middle;resizable=0;points=[];" parent="21" vertex="1" connectable="0"><mxGeometry x="-0.427" relative="1" as="geometry"><mxPoint as="offset"/></mxGeometry></mxCell><mxCell id="82" value="log" style="edgeLabel;html=1;align=center;verticalAlign=middle;resizable=0;points=[];" parent="21" vertex="1" connectable="0"><mxGeometry x="0.6865" y="-2" relative="1" as="geometry"><mxPoint as="offset"/></mxGeometry></mxCell><mxCell id="5" value="" style="rounded=0;whiteSpace=wrap;html=1;" parent="1" vertex="1"><mxGeometry x="470" y="347.5" width="300" height="215" as="geometry"/></mxCell><mxCell id="6" value="reciver" style="rounded=0;whiteSpace=wrap;html=1;" parent="1" vertex="1"><mxGeometry x="490" y="372.5" width="50" height="170" as="geometry"/></mxCell><mxCell id="7" value="processor" style="rounded=0;whiteSpace=wrap;html=1;" parent="1" vertex="1"><mxGeometry x="585" y="368.75" width="72.5" height="172.5" as="geometry"/></mxCell><mxCell id="8" value="exporter" style="rounded=0;whiteSpace=wrap;html=1;" parent="1" vertex="1"><mxGeometry x="700" y="370" width="50" height="170" as="geometry"/></mxCell><mxCell id="24" value="&lt;font style=&quot;font-size: 14px;&quot;&gt;Collector&lt;/font&gt;" style="text;html=1;strokeColor=none;fillColor=none;align=center;verticalAlign=middle;whiteSpace=wrap;rounded=0;" parent="1" vertex="1"><mxGeometry x="580" y="310" width="60" height="30" as="geometry"/></mxCell><mxCell id="65" value="" style="rounded=0;whiteSpace=wrap;html=1;" parent="1" vertex="1"><mxGeometry x="980" y="230" width="310" height="130" as="geometry"/></mxCell><mxCell id="66" value="zipkin" style="rounded=1;whiteSpace=wrap;html=1;" parent="1" vertex="1"><mxGeometry x="1000" y="245" width="120" height="40" as="geometry"/></mxCell><mxCell id="67" value="jeager" style="rounded=1;whiteSpace=wrap;html=1;" parent="1" vertex="1"><mxGeometry x="1000" y="300" width="120" height="40" as="geometry"/></mxCell><mxCell id="68" value="signoz" style="rounded=1;whiteSpace=wrap;html=1;" parent="1" vertex="1"><mxGeometry x="1140" y="245" width="120" height="40" as="geometry"/></mxCell><mxCell id="69" value="..." style="rounded=1;whiteSpace=wrap;html=1;" parent="1" vertex="1"><mxGeometry x="1140" y="300" width="120" height="40" as="geometry"/></mxCell><mxCell id="70" value="" style="rounded=0;whiteSpace=wrap;html=1;" parent="1" vertex="1"><mxGeometry x="980" y="390" width="310" height="130" as="geometry"/></mxCell><mxCell id="71" value="prometheus" style="rounded=1;whiteSpace=wrap;html=1;" parent="1" vertex="1"><mxGeometry x="1000" y="405" width="120" height="40" as="geometry"/></mxCell><mxCell id="72" value="....." style="rounded=1;whiteSpace=wrap;html=1;" parent="1" vertex="1"><mxGeometry x="1000" y="460" width="120" height="40" as="geometry"/></mxCell><mxCell id="73" value="signoz" style="rounded=1;whiteSpace=wrap;html=1;" parent="1" vertex="1"><mxGeometry x="1140" y="405" width="120" height="40" as="geometry"/></mxCell><mxCell id="75" value="" style="rounded=0;whiteSpace=wrap;html=1;" parent="1" vertex="1"><mxGeometry x="980" y="550" width="310" height="130" as="geometry"/></mxCell><mxCell id="76" value="elasticsearch" style="rounded=1;whiteSpace=wrap;html=1;" parent="1" vertex="1"><mxGeometry x="1000" y="565" width="120" height="40" as="geometry"/></mxCell><mxCell id="77" value="....." style="rounded=1;whiteSpace=wrap;html=1;" parent="1" vertex="1"><mxGeometry x="1000" y="620" width="120" height="40" as="geometry"/></mxCell><mxCell id="78" value="signoz" style="rounded=1;whiteSpace=wrap;html=1;" parent="1" vertex="1"><mxGeometry x="1140" y="565" width="120" height="40" as="geometry"/></mxCell><mxCell id="84" value="SDK" style="rounded=0;whiteSpace=wrap;html=1;" parent="1" vertex="1"><mxGeometry x="320" y="352.5" width="30" height="50" as="geometry"/></mxCell><mxCell id="85" value="SDK" style="rounded=0;whiteSpace=wrap;html=1;" parent="1" vertex="1"><mxGeometry x="320" y="430" width="30" height="50" as="geometry"/></mxCell><mxCell id="86" value="SDK" style="rounded=0;whiteSpace=wrap;html=1;" parent="1" vertex="1"><mxGeometry x="320" y="512.5" width="30" height="50" as="geometry"/></mxCell><mxCell id="99" value="watch&lt;br&gt;pod annonatation" style="edgeStyle=orthogonalEdgeStyle;rounded=0;orthogonalLoop=1;jettySize=auto;html=1;" edge="1" parent="1" source="87" target="98"><mxGeometry relative="1" as="geometry"/></mxCell><mxCell id="103" style="edgeStyle=orthogonalEdgeStyle;rounded=0;orthogonalLoop=1;jettySize=auto;html=1;" edge="1" parent="1" source="87" target="97"><mxGeometry relative="1" as="geometry"/></mxCell><mxCell id="105" value="Add Init Container" style="edgeLabel;html=1;align=center;verticalAlign=middle;resizable=0;points=[];" vertex="1" connectable="0" parent="103"><mxGeometry x="0.2171" y="2" relative="1" as="geometry"><mxPoint as="offset"/></mxGeometry></mxCell><mxCell id="87" value="OTEL Controller" style="rounded=0;whiteSpace=wrap;html=1;" vertex="1" parent="1"><mxGeometry x="650" y="780" width="120" height="60" as="geometry"/></mxCell><mxCell id="106" style="edgeStyle=orthogonalEdgeStyle;rounded=0;orthogonalLoop=1;jettySize=auto;html=1;entryX=1;entryY=0.5;entryDx=0;entryDy=0;" edge="1" parent="1" source="92" target="98"><mxGeometry relative="1" as="geometry"/></mxCell><mxCell id="108" value="Create" style="edgeLabel;html=1;align=center;verticalAlign=middle;resizable=0;points=[];" vertex="1" connectable="0" parent="106"><mxGeometry x="0.2267" y="5" relative="1" as="geometry"><mxPoint x="22" y="-5" as="offset"/></mxGeometry></mxCell><mxCell id="92" value="Instrumentation&lt;br&gt;CRD" style="rounded=0;whiteSpace=wrap;html=1;" vertex="1" parent="1"><mxGeometry x="920" y="950" width="120" height="60" as="geometry"/></mxCell><mxCell id="100" style="edgeStyle=orthogonalEdgeStyle;rounded=0;orthogonalLoop=1;jettySize=auto;html=1;entryX=0;entryY=0.5;entryDx=0;entryDy=0;" edge="1" parent="1" source="97" target="98"><mxGeometry relative="1" as="geometry"/></mxCell><mxCell id="102" value="Create" style="edgeLabel;html=1;align=center;verticalAlign=middle;resizable=0;points=[];" vertex="1" connectable="0" parent="100"><mxGeometry x="-0.12" y="1" relative="1" as="geometry"><mxPoint y="1" as="offset"/></mxGeometry></mxCell><mxCell id="97" value="Pod" style="rounded=0;whiteSpace=wrap;html=1;" vertex="1" parent="1"><mxGeometry x="380" y="950" width="120" height="60" as="geometry"/></mxCell><mxCell id="98" value="api-server" style="shape=process;whiteSpace=wrap;html=1;backgroundOutline=1;" vertex="1" parent="1"><mxGeometry x="650" y="950" width="120" height="60" as="geometry"/></mxCell><mxCell id="109" value="&lt;h1&gt;CRD&lt;/h1&gt;&lt;div&gt;定义了采样率&lt;/div&gt;&lt;div&gt;定义了Exporter&lt;/div&gt;&lt;div&gt;定义了Propagators&lt;/div&gt;" style="text;html=1;strokeColor=none;fillColor=none;spacing=5;spacingTop=-20;whiteSpace=wrap;overflow=hidden;rounded=0;" vertex="1" parent="1"><mxGeometry x="1070" y="920" width="190" height="100" as="geometry"/></mxCell><mxCell id="111" value="&lt;h1&gt;Controller&lt;/h1&gt;&lt;div&gt;1. 可创建不同的 instrument 实例，将数据发往不同的后端&lt;/div&gt;&lt;div&gt;2. 监控Pod 的注解情况，选择对应的 instrument 配置&lt;/div&gt;&lt;div&gt;3. 修改Pod 定义，以共享卷的方式为目标Pod 增加遥测配置、Libraies&lt;/div&gt;" style="text;html=1;strokeColor=none;fillColor=none;spacing=5;spacingTop=-20;whiteSpace=wrap;overflow=hidden;rounded=0;" vertex="1" parent="1"><mxGeometry x="800" y="760" width="400" height="100" as="geometry"/></mxCell></root></mxGraphModel></diagram></mxfile>